<?xml version="1.0" encoding="utf-8"?>
<!-- Generator: Adobe Illustrator 27.3.1, SVG Export Plug-In . SVG Version: 6.00 Build 0)  -->
<svg version="1.1" id="Слой_1" xmlns="http://www.w3.org/2000/svg" xmlns:xlink="http://www.w3.org/1999/xlink" x="0px" y="0px"
	 viewBox="0 0 24 24" style="enable-background:new 0 0 24 24;" xml:space="preserve">
<style type="text/css">
	.st0{fill:#0F9F0F;}
</style>
<path class="st0" d="M5.8,10.3c0,2,0.9,3.9,2.4,5.2l1.1,3.5v1.3c0,0.9,0.7,1.7,1.7,1.7h2c0.9,0,1.7-0.7,1.7-1.7v-1.3l1.1-3.5
	c1.5-1.3,2.4-3.2,2.4-5.2c0-3.3-2.6-5.7-6.2-5.7C8.4,4.7,5.8,7,5.8,10.3L5.8,10.3z M14,20h-4v-0.7h4V20z M13,21.3h-2
	c-0.4,0-0.8-0.3-0.9-0.7h3.9C13.8,21.1,13.4,21.3,13,21.3z M14.1,18.7H9.9l-0.8-2.5c1.7,1.1,4,1.1,5.7,0L14.1,18.7z M11.3,12.2
	l0.5,0.4c0.1,0.1,0.3,0.1,0.4,0l0.5-0.4c0,0,0,0.1,0,0.1v3.9c-0.4,0.1-0.9,0.1-1.3,0L11.3,12.2C11.3,12.3,11.3,12.3,11.3,12.2z
	 M12,5.3c3.2,0,5.5,2.1,5.5,5c0,2.7-1.8,5.1-4.2,5.8v-3.7l0.2,0.2c0.1,0.1,0.3,0.1,0.4,0l0.9-0.6c0.1-0.1,0.2-0.2,0.1-0.3
	c0-0.1-0.1-0.2-0.2-0.3c-0.1,0-0.2,0-0.3,0l-0.7,0.5l-0.7-0.5c-0.1-0.1-0.3-0.1-0.4,0L12,11.9l-0.7-0.5c-0.1-0.1-0.3-0.1-0.4,0
	l-0.7,0.5l-0.7-0.5c-0.1-0.1-0.4-0.1-0.5,0.1C9,11.6,9,11.8,9.1,12l0.9,0.6c0.1,0.1,0.3,0.1,0.4,0l0.3-0.2v3.7
	c-2.3-0.7-4.2-3.1-4.2-5.8C6.5,7.4,8.8,5.3,12,5.3L12,5.3z"/>
<path class="st0" d="M7.3,11.7c0,0.2,0.2,0.3,0.3,0.3c0,0,0,0,0.1,0c0.1,0,0.2-0.1,0.2-0.1c0-0.1,0.1-0.2,0-0.3
	C7.7,10.4,7.9,9.1,8.7,8c0.7-0.9,1.8-1.4,3-1.4c0.2,0,0.3-0.1,0.3-0.3S11.9,6,11.7,6C10.3,6,9,6.6,8.2,7.6C7.3,8.8,7,10.3,7.3,11.7z
	"/>
<path class="st0" d="M12.7,6.7H13c0.2,0,0.3-0.1,0.3-0.3C13.3,6.1,13.2,6,13,6h-0.3c-0.2,0-0.3,0.1-0.3,0.3
	C12.3,6.5,12.5,6.7,12.7,6.7z"/>
<path class="st0" d="M12.3,3.7V2.3C12.3,2.1,12.2,2,12,2c-0.2,0-0.3,0.1-0.3,0.3v1.3C11.7,3.9,11.8,4,12,4C12.2,4,12.3,3.9,12.3,3.7
	z"/>
<path class="st0" d="M17.1,17.1c-0.1,0.1-0.1,0.3,0,0.5l1,1c0.1,0.1,0.3,0.1,0.5,0c0.1-0.1,0.1-0.3,0-0.5l-1-1
	C17.4,17,17.2,17,17.1,17.1L17.1,17.1z"/>
<path class="st0" d="M4.6,4.1C4.4,4,4.2,4,4.1,4.1C4,4.2,4,4.4,4.1,4.6l1,1c0.1,0.1,0.3,0.1,0.5,0s0.1-0.3,0-0.5L4.6,4.1z"/>
<path class="st0" d="M5.4,18.6c0.1,0.1,0.3,0.1,0.5,0l1-1c0.1-0.1,0.1-0.3,0-0.5c-0.1-0.1-0.3-0.1-0.5,0l-1,1
	C5.3,18.2,5.3,18.4,5.4,18.6L5.4,18.6z"/>
<path class="st0" d="M5,11.7H3.3C3.1,11.7,3,11.8,3,12c0,0.2,0.1,0.3,0.3,0.3H5c0.2,0,0.3-0.1,0.3-0.3C5.3,11.8,5.2,11.7,5,11.7z"/>
<path class="st0" d="M19.4,4.1l-1,1c-0.1,0.1-0.1,0.2-0.1,0.3c0,0.1,0.1,0.2,0.2,0.2c0.1,0,0.2,0,0.3-0.1l1-1c0.1-0.1,0.1-0.3,0-0.5
	C19.8,4,19.6,4,19.4,4.1z"/>
<path class="st0" d="M18.7,12c0,0.2,0.1,0.3,0.3,0.3h1.7c0.2,0,0.3-0.1,0.3-0.3c0-0.2-0.1-0.3-0.3-0.3H19
	C18.8,11.7,18.7,11.8,18.7,12z"/>
<image style="display:none;overflow:visible;" width="1755" height="574" xlink:href="../../../../../Downloads/image.png"  transform="matrix(0.75 0 0 0.75 -655.008 -209.133)">
</image>
</svg>
